<svg width="80" height="80" viewBox="0 0 80 80" fill="none" xmlns="http://www.w3.org/2000/svg">
<path d="M36.5 61.1666L24.6667 49.3333L29.5 44.5L36.5 51.5L50.5 37.5L55.3333 42.3333L36.5 61.1666ZM16.6667 73.3333C14.8333 73.3333 13.2633 72.6811 11.9567 71.3766C10.6522 70.07 10 68.5 10 66.6666V20C10 18.1666 10.6522 16.5977 11.9567 15.2933C13.2633 13.9866 14.8333 13.3333 16.6667 13.3333H20V6.66663H26.6667V13.3333H53.3333V6.66663H60V13.3333H63.3333C65.1667 13.3333 66.7367 13.9866 68.0433 15.2933C69.3478 16.5977 70 18.1666 70 20V66.6666C70 68.5 69.3478 70.07 68.0433 71.3766C66.7367 72.6811 65.1667 73.3333 63.3333 73.3333H16.6667ZM16.6667 66.6666H63.3333V33.3333H16.6667V66.6666Z" fill="black"/>
</svg>
