<svg width="33" height="33" viewBox="0 0 33 33" fill="none" xmlns="http://www.w3.org/2000/svg">
<path d="M13.3031 18.8375L14.5063 14.9188L11.3438 12.375H15.2625L16.5 8.525L17.7375 12.375H21.6562L18.4594 14.9188L19.6625 18.8375L16.5 16.3969L13.3031 18.8375ZM8.25 31.625V21.0031C7.37917 20.0406 6.70313 18.9406 6.22188 17.7031C5.74063 16.4656 5.5 15.1479 5.5 13.75C5.5 10.6792 6.56562 8.07812 8.69687 5.94687C10.8281 3.81562 13.4292 2.75 16.5 2.75C19.5708 2.75 22.1719 3.81562 24.3031 5.94687C26.4344 8.07812 27.5 10.6792 27.5 13.75C27.5 15.1479 27.2594 16.4656 26.7781 17.7031C26.2969 18.9406 25.6208 20.0406 24.75 21.0031V31.625L16.5 28.875L8.25 31.625ZM16.5 22C18.7917 22 20.7396 21.1979 22.3438 19.5938C23.9479 17.9896 24.75 16.0417 24.75 13.75C24.75 11.4583 23.9479 9.51042 22.3438 7.90625C20.7396 6.30208 18.7917 5.5 16.5 5.5C14.2083 5.5 12.2604 6.30208 10.6562 7.90625C9.05208 9.51042 8.25 11.4583 8.25 13.75C8.25 16.0417 9.05208 17.9896 10.6562 19.5938C12.2604 21.1979 14.2083 22 16.5 22Z" fill="black"/>
</svg>
