<svg width="94" height="94" viewBox="0 0 94 94" fill="none" xmlns="http://www.w3.org/2000/svg">
<path d="M47 43.0833C56.7917 43.0833 65.1146 41.5493 71.9688 38.4812C78.8229 35.4132 82.25 31.725 82.25 27.4167C82.25 23.1083 78.8229 19.4201 71.9688 16.3521C65.1146 13.284 56.7917 11.75 47 11.75C37.2083 11.75 28.8854 13.284 22.0313 16.3521C15.1771 19.4201 11.75 23.1083 11.75 27.4167C11.75 31.725 15.1771 35.4132 22.0313 38.4812C28.8854 41.5493 37.2083 43.0833 47 43.0833ZM47 52.875C49.6764 52.875 53.0212 52.5969 57.0345 52.0407C61.0504 51.4872 64.9187 50.5903 68.6396 49.35C72.3604 48.1097 75.559 46.4948 78.2354 44.5051C80.9118 42.5128 82.25 40.0806 82.25 37.2083V47C82.25 49.8722 80.9118 52.3045 78.2354 54.2968C75.559 56.2864 72.3604 57.9014 68.6396 59.1417C64.9187 60.3819 61.0504 61.2789 57.0345 61.8324C53.0212 62.3886 49.6764 62.6667 47 62.6667C44.3236 62.6667 40.9788 62.3886 36.9655 61.8324C32.9496 61.2789 29.0812 60.3819 25.3604 59.1417C21.6396 57.9014 18.441 56.2864 15.7646 54.2968C13.0882 52.3045 11.75 49.8722 11.75 47V37.2083C11.75 40.0806 13.0882 42.5128 15.7646 44.5051C18.441 46.4948 21.6396 48.1097 25.3604 49.35C29.0812 50.5903 32.9496 51.4872 36.9655 52.0407C40.9788 52.5969 44.3236 52.875 47 52.875ZM47 72.4583C49.6764 72.4583 53.0212 72.1816 57.0345 71.628C61.0504 71.0718 64.9187 70.1736 68.6396 68.9333C72.3604 67.6931 75.559 66.0781 78.2354 64.0884C80.9118 62.0961 82.25 59.6639 82.25 56.7917V66.5833C82.25 69.4556 80.9118 71.8878 78.2354 73.8801C75.559 75.8698 72.3604 77.4847 68.6396 78.725C64.9187 79.9653 61.0504 80.8635 57.0345 81.4197C53.0212 81.9732 49.6764 82.25 47 82.25C44.3236 82.25 40.9788 81.9732 36.9655 81.4197C32.9496 80.8635 29.0812 79.9653 25.3604 78.725C21.6396 77.4847 18.441 75.8698 15.7646 73.8801C13.0882 71.8878 11.75 69.4556 11.75 66.5833V56.7917C11.75 59.6639 13.0882 62.0961 15.7646 64.0884C18.441 66.0781 21.6396 67.6931 25.3604 68.9333C29.0812 70.1736 32.9496 71.0718 36.9655 71.628C40.9788 72.1816 44.3236 72.4583 47 72.4583Z" fill="black"/>
</svg>
