<svg width="32" height="32" viewBox="0 0 32 32" fill="none" xmlns="http://www.w3.org/2000/svg">
<path d="M5.33333 26.6668C4.6 26.6668 3.97244 26.4059 3.45066 25.8842C2.928 25.3615 2.66666 24.7335 2.66666 24.0002V8.00016C2.66666 7.26683 2.928 6.63927 3.45066 6.1175C3.97244 5.59483 4.6 5.3335 5.33333 5.3335H26.6667C27.4 5.3335 28.028 5.59483 28.5507 6.1175C29.0724 6.63927 29.3333 7.26683 29.3333 8.00016V24.0002C29.3333 24.7335 29.0724 25.3615 28.5507 25.8842C28.028 26.4059 27.4 26.6668 26.6667 26.6668H5.33333ZM16 17.3335L26.6667 10.6668V8.00016L16 14.6668L5.33333 8.00016V10.6668L16 17.3335Z" fill="black"/>
</svg>
