<svg width="47" height="47" viewBox="0 0 47 47" fill="none" xmlns="http://www.w3.org/2000/svg">
<g clip-path="url(#clip0_1_99)">
<path d="M22.5208 5.875C24.4459 5.87515 26.3181 6.5054 27.8514 7.6695C29.3846 8.8336 30.4947 10.4676 31.0122 12.3218L31.114 12.7233L34.7761 11.8088C35.0437 11.7421 35.3225 11.7328 35.594 11.7814C35.8655 11.83 36.1237 11.9354 36.3517 12.0907C36.5796 12.246 36.7722 12.4477 36.9168 12.6826C37.0614 12.9175 37.1547 13.1803 37.1907 13.4537L37.2083 13.7083V17.2529C38.3124 18.3115 39.2171 19.5598 39.8795 20.9385L40.1497 21.5417H41.125C41.6046 21.5417 42.0676 21.7178 42.426 22.0366C42.7845 22.3553 43.0135 22.7945 43.0696 23.2709L43.0833 23.5V29.375C43.0834 29.6973 43.0039 30.0147 42.8518 30.2989C42.6998 30.5831 42.48 30.8254 42.2119 31.0043L42.0004 31.1258L39.713 32.2714C38.7766 34.083 37.4202 35.6442 35.7572 36.8245L35.25 37.1653V39.1667C35.2499 39.6463 35.0738 40.1093 34.7551 40.4677C34.4363 40.8262 33.9971 41.0552 33.5208 41.1113L33.2917 41.125H27.4167C26.937 41.1249 26.474 40.9488 26.1156 40.6301C25.7571 40.3114 25.5282 39.8722 25.472 39.3958L25.4583 39.1667H23.5C23.4999 39.6463 23.3238 40.1093 23.0051 40.4677C22.6864 40.8262 22.2471 41.0552 21.7708 41.1113L21.5417 41.125H15.6667C15.187 41.1249 14.724 40.9488 14.3656 40.6301C14.0072 40.3114 13.7782 39.8722 13.722 39.3958L13.7083 39.1667V37.1653C12.2936 36.2608 11.0715 35.0857 10.1124 33.7074C9.15321 32.3292 8.47586 30.775 8.11924 29.1341C6.96446 28.7904 5.94317 28.1002 5.19359 27.157C4.44402 26.2137 4.00236 25.0629 3.92841 23.8603L3.91666 23.5V22.5208C3.91721 22.0217 4.10834 21.5416 4.45098 21.1787C4.79363 20.8157 5.26194 20.5973 5.76022 20.568C6.2585 20.5388 6.74915 20.7009 7.13191 21.0213C7.51467 21.3416 7.76066 21.7961 7.81961 22.2917L7.83332 22.5208V23.5C7.83332 23.7898 7.89599 24.066 8.00957 24.3127C8.30848 22.5496 8.97529 20.8693 9.96659 19.381C10.9579 17.8927 12.2515 16.6298 13.7632 15.6745C13.6242 14.4417 13.7471 13.1935 14.1239 12.0114C14.5006 10.8294 15.1226 9.74024 15.9493 8.81521C16.776 7.89018 17.7887 7.15011 18.9211 6.64344C20.0536 6.13677 21.2802 5.87491 22.5208 5.875ZM33.2917 16.215L27.8906 17.5663L27.6556 17.6113L27.4167 17.625H20.5625C18.5824 17.6237 16.6595 18.2893 15.1039 19.5145C13.5484 20.7397 12.4508 22.4531 11.9881 24.3784C11.5254 26.3037 11.7247 28.3288 12.5537 30.127C13.3827 31.9252 14.7932 33.3919 16.5577 34.2904C16.842 34.4358 17.0864 34.6484 17.2697 34.9099C17.453 35.1714 17.5696 35.4737 17.6093 35.7905L17.625 36.0333V37.2083H19.5833C19.5834 36.7287 19.7595 36.2657 20.0782 35.9073C20.397 35.5488 20.8362 35.3198 21.3125 35.2637L21.5417 35.25H27.4167C27.8963 35.2501 28.3593 35.4262 28.7177 35.7449C29.0762 36.0636 29.3052 36.5028 29.3613 36.9792L29.375 37.2083H31.3333V36.0333C31.3335 35.6727 31.4332 35.3191 31.6216 35.0116C31.8099 34.7041 32.0795 34.4545 32.4006 34.2904C34.1976 33.3705 35.6265 31.8642 36.4504 30.0213C36.5973 29.6916 36.8325 29.4089 37.13 29.2046L37.363 29.0675L39.1667 28.1648V25.4583H38.7613C38.3349 25.4582 37.9201 25.3189 37.5801 25.0616C37.2401 24.8043 36.9933 24.443 36.8774 24.0327C36.3875 22.3099 35.3848 20.7771 34.0025 19.6382C33.619 19.3213 33.3705 18.8704 33.3073 18.377L33.2917 18.1283V16.217V16.215ZM31.3333 21.5417C31.8527 21.5417 32.3508 21.748 32.7181 22.1152C33.0853 22.4825 33.2917 22.9806 33.2917 23.5C33.2917 24.0194 33.0853 24.5175 32.7181 24.8848C32.3508 25.252 31.8527 25.4583 31.3333 25.4583C30.8139 25.4583 30.3158 25.252 29.9486 24.8848C29.5813 24.5175 29.375 24.0194 29.375 23.5C29.375 22.9806 29.5813 22.4825 29.9486 22.1152C30.3158 21.748 30.8139 21.5417 31.3333 21.5417ZM22.5208 9.79167C21.3346 9.79166 20.1888 10.2223 19.2962 11.0036C18.4037 11.7848 17.8251 12.8636 17.6681 14.0393C18.6171 13.8189 19.5882 13.7079 20.5625 13.7083H27.1758L27.3129 13.675C27.0806 12.5763 26.4777 11.5909 25.6053 10.8838C24.7328 10.1768 23.6438 9.7912 22.5208 9.79167Z" fill="black"/>
</g>
<defs>
<clipPath id="clip0_1_99">
<rect width="47" height="47" fill="white"/>
</clipPath>
</defs>
</svg>
