<svg width="49" height="49" viewBox="0 0 49 49" fill="none" xmlns="http://www.w3.org/2000/svg">
<path d="M10.2083 34.7083C10.2083 35.7913 10.6385 36.8299 11.4043 37.5957C12.1701 38.3615 13.2087 38.7917 14.2917 38.7917C15.3746 38.7917 16.4132 38.3615 17.179 37.5957C17.9448 36.8299 18.375 35.7913 18.375 34.7083C18.375 33.6254 17.9448 32.5868 17.179 31.821C16.4132 31.0552 15.3746 30.625 14.2917 30.625C13.2087 30.625 12.1701 31.0552 11.4043 31.821C10.6385 32.5868 10.2083 33.6254 10.2083 34.7083ZM30.625 34.7083C30.625 35.7913 31.0552 36.8299 31.821 37.5957C32.5868 38.3615 33.6254 38.7917 34.7083 38.7917C35.7913 38.7917 36.8299 38.3615 37.5957 37.5957C38.3615 36.8299 38.7917 35.7913 38.7917 34.7083C38.7917 33.6254 38.3615 32.5868 37.5957 31.821C36.8299 31.0552 35.7913 30.625 34.7083 30.625C33.6254 30.625 32.5868 31.0552 31.821 31.821C31.0552 32.5868 30.625 33.6254 30.625 34.7083Z" stroke="black" stroke-width="2" stroke-linecap="round" stroke-linejoin="round"/>
<path d="M10.2083 34.7085H6.125V12.2502C6.125 11.7087 6.3401 11.1894 6.72299 10.8065C7.10588 10.4236 7.62518 10.2085 8.16667 10.2085H26.5417V34.7085M18.375 34.7085H30.625M38.7917 34.7085H42.875V22.4585M42.875 22.4585H26.5417M42.875 22.4585L36.75 12.2502H26.5417M12.25 20.4168H20.4167M16.3333 16.3335V24.5002" stroke="black" stroke-width="2" stroke-linecap="round" stroke-linejoin="round"/>
</svg>
